# xmcd
#
# Track frame offsets:
#	150
#	40346
#	97334
#	155239
#	182469
#	213610
#	232175
#
# Disc length: 3986 seconds
#
# Revision: 0
# Processed by: cddbd v1.5.2PL0 Copyright (c) Steve Scherf et al.
# Submitted via: audiograbber 1.83.01
#
DISCID=670f9007
DTITLE=Grateful Dead - 93-12-19 Oakland Coliseum Arena, Oakland CA
DYEAR=1900
DGENRE=
TTITLE0=Scarlet Begonias
TTITLE1=Fire On The Mountain
TTITLE2=Estimated Prophet
TTITLE3=So Many Roads
TTITLE4=Truckin'
TTITLE5=Smokestack Lightning
TTITLE6=Drums
EXTD=
EXTT0=
EXTT1=
EXTT2=
EXTT3=
EXTT4=
EXTT5=
EXTT6=
PLAYORDER=
